<svg xmlns="http://www.w3.org/2000/svg" viewBox="0 0 200 200">
  <defs>
    <radialGradient id="glow" cx="50%" cy="50%" r="50%">
      <stop offset="0%" stop-color="#FFF3D6" />
      <stop offset="30%" stop-color="#FFDD8A" />
      <stop offset="60%" stop-color="#F3B23E" stop-opacity="0.55" />
      <stop offset="100%" stop-color="#F3B23E" stop-opacity="0" />
    </radialGradient>
  </defs>
  <circle cx="100" cy="100" r="70" fill="url(#glow)" />
  <g>
    <line x1="100" y1="100" x2="192.00" y2="100.00" stroke="#EDAE42" stroke-width="1.6" stroke-linecap="round" opacity="0.85" />
    <line x1="100" y1="100" x2="158.50" y2="113.35" stroke="#EDAE42" stroke-width="0.9" stroke-linecap="round" opacity="0.45" />
    <line x1="100" y1="100" x2="182.89" y2="139.92" stroke="#EDAE42" stroke-width="1.6" stroke-linecap="round" opacity="0.85" />
    <line x1="100" y1="100" x2="146.91" y2="137.41" stroke="#EDAE42" stroke-width="0.9" stroke-linecap="round" opacity="0.45" />
    <line x1="100" y1="100" x2="157.36" y2="171.93" stroke="#EDAE42" stroke-width="1.6" stroke-linecap="round" opacity="0.85" />
    <line x1="100" y1="100" x2="126.03" y2="154.06" stroke="#EDAE42" stroke-width="0.9" stroke-linecap="round" opacity="0.45" />
    <line x1="100" y1="100" x2="120.47" y2="189.69" stroke="#EDAE42" stroke-width="1.6" stroke-linecap="round" opacity="0.85" />
    <line x1="100" y1="100" x2="100.00" y2="160.00" stroke="#EDAE42" stroke-width="0.9" stroke-linecap="round" opacity="0.45" />
    <line x1="100" y1="100" x2="79.53" y2="189.69" stroke="#EDAE42" stroke-width="1.6" stroke-linecap="round" opacity="0.85" />
    <line x1="100" y1="100" x2="73.97" y2="154.06" stroke="#EDAE42" stroke-width="0.9" stroke-linecap="round" opacity="0.45" />
    <line x1="100" y1="100" x2="42.64" y2="171.93" stroke="#EDAE42" stroke-width="1.6" stroke-linecap="round" opacity="0.85" />
    <line x1="100" y1="100" x2="53.09" y2="137.41" stroke="#EDAE42" stroke-width="0.9" stroke-linecap="round" opacity="0.45" />
    <line x1="100" y1="100" x2="17.11" y2="139.92" stroke="#EDAE42" stroke-width="1.6" stroke-linecap="round" opacity="0.85" />
    <line x1="100" y1="100" x2="41.50" y2="113.35" stroke="#EDAE42" stroke-width="0.9" stroke-linecap="round" opacity="0.45" />
    <line x1="100" y1="100" x2="8.00" y2="100.00" stroke="#EDAE42" stroke-width="1.6" stroke-linecap="round" opacity="0.85" />
    <line x1="100" y1="100" x2="41.50" y2="86.65" stroke="#EDAE42" stroke-width="0.9" stroke-linecap="round" opacity="0.45" />
    <line x1="100" y1="100" x2="17.11" y2="60.08" stroke="#EDAE42" stroke-width="1.6" stroke-linecap="round" opacity="0.85" />
    <line x1="100" y1="100" x2="53.09" y2="62.59" stroke="#EDAE42" stroke-width="0.9" stroke-linecap="round" opacity="0.45" />
    <line x1="100" y1="100" x2="42.64" y2="28.07" stroke="#EDAE42" stroke-width="1.6" stroke-linecap="round" opacity="0.85" />
    <line x1="100" y1="100" x2="73.97" y2="45.94" stroke="#EDAE42" stroke-width="0.9" stroke-linecap="round" opacity="0.45" />
    <line x1="100" y1="100" x2="79.53" y2="10.31" stroke="#EDAE42" stroke-width="1.6" stroke-linecap="round" opacity="0.85" />
    <line x1="100" y1="100" x2="100.00" y2="40.00" stroke="#EDAE42" stroke-width="0.9" stroke-linecap="round" opacity="0.45" />
    <line x1="100" y1="100" x2="120.47" y2="10.31" stroke="#EDAE42" stroke-width="1.6" stroke-linecap="round" opacity="0.85" />
    <line x1="100" y1="100" x2="126.03" y2="45.94" stroke="#EDAE42" stroke-width="0.9" stroke-linecap="round" opacity="0.45" />
    <line x1="100" y1="100" x2="157.36" y2="28.07" stroke="#EDAE42" stroke-width="1.6" stroke-linecap="round" opacity="0.85" />
    <line x1="100" y1="100" x2="146.91" y2="62.59" stroke="#EDAE42" stroke-width="0.9" stroke-linecap="round" opacity="0.45" />
    <line x1="100" y1="100" x2="182.89" y2="60.08" stroke="#EDAE42" stroke-width="1.6" stroke-linecap="round" opacity="0.85" />
    <line x1="100" y1="100" x2="158.50" y2="86.65" stroke="#EDAE42" stroke-width="0.9" stroke-linecap="round" opacity="0.45" />
  </g>
  <circle cx="100" cy="100" r="10" fill="#FFE9A8" />
  <path d="M 83.68 7.43 A 94 94 0 0 1 188.33 132.15" fill="none" stroke="#3FA4C0" stroke-width="2.4" stroke-linecap="round" />
  <path d="M 116.32 192.57 A 94 94 0 0 1 11.67 67.85" fill="none" stroke="#3FA4C0" stroke-width="2.4" stroke-linecap="round" />
</svg>
